<?xml version="1.0" standalone="no"?>
<!DOCTYPE svg PUBLIC "-//W3C//DTD SVG 20010904//EN"
 "http://www.w3.org/TR/2001/REC-SVG-20010904/DTD/svg10.dtd">
<svg version="1.0" xmlns="http://www.w3.org/2000/svg"
 width="500.000000pt" height="500.000000pt" viewBox="0 0 500.000000 500.000000"
 preserveAspectRatio="xMidYMid meet">
<metadata>
Created by potrace 1.14, written by Peter Selinger 2001-2017
</metadata>
<g transform="translate(0.000000,500.000000) scale(0.100000,-0.100000)"
fill="#000000" stroke="none">
<path d="M2380 4809 c-14 -4 -50 -8 -80 -8 -30 -1 -83 -8 -117 -16 -63 -15
-87 -19 -158 -31 -22 -3 -49 -11 -60 -17 -11 -6 -38 -14 -60 -18 -94 -18 -153
-37 -225 -74 -14 -7 -43 -18 -65 -25 -47 -15 -309 -152 -325 -171 -3 -3 -32
-24 -65 -46 -33 -22 -72 -51 -87 -64 -15 -13 -48 -40 -74 -59 -26 -19 -71 -58
-98 -87 -109 -110 -266 -282 -266 -290 0 -5 -51 -75 -61 -83 -3 -3 -23 -34
-45 -70 -21 -36 -41 -67 -44 -70 -3 -3 -16 -27 -30 -54 -14 -27 -33 -63 -42
-80 -31 -56 -101 -219 -114 -265 -7 -25 -27 -86 -44 -136 -17 -49 -33 -106
-36 -125 -3 -19 -9 -51 -14 -70 -43 -178 -53 -480 -25 -740 7 -63 55 -277 86
-382 41 -137 140 -367 191 -440 10 -14 18 -31 18 -36 0 -13 87 -145 152 -231
96 -128 217 -258 312 -336 27 -22 63 -53 80 -68 30 -28 125 -100 162 -124 11
-7 42 -28 69 -48 50 -35 327 -176 375 -190 14 -4 52 -17 85 -30 74 -28 197
-63 249 -71 22 -3 49 -10 62 -14 12 -5 48 -12 81 -16 32 -3 62 -8 66 -11 24
-14 411 -22 492 -10 17 3 60 8 97 12 37 4 80 8 95 10 26 3 151 30 248 53 41
10 116 35 170 58 17 6 41 15 55 19 74 23 323 153 381 200 15 12 40 27 58 34
17 8 31 17 31 22 0 5 6 9 14 9 7 0 20 7 27 16 7 9 56 51 108 92 129 104 262
241 346 356 16 23 38 50 47 60 41 45 131 193 199 326 37 73 121 275 133 324 8
28 21 76 30 106 8 30 17 66 20 80 2 14 10 45 17 70 7 25 13 61 14 80 2 19 8
60 14 90 6 30 11 68 10 85 0 16 3 64 7 105 12 110 3 300 -17 367 -6 17 -11 55
-13 85 -5 100 -88 413 -122 463 -8 11 -14 29 -14 42 0 18 -47 118 -98 208 -6
11 -18 37 -27 57 -9 20 -28 49 -41 63 -13 14 -35 46 -49 71 -38 68 -56 96 -90
135 -16 20 -52 64 -79 98 -26 34 -65 74 -86 89 -21 15 -48 43 -60 62 -12 19
-52 59 -89 87 -36 29 -82 67 -101 84 -56 50 -234 168 -342 226 -101 55 -480
197 -558 209 -8 2 -51 8 -95 14 -44 6 -114 19 -155 28 -80 17 -383 26 -430 11z
m280 -573 c351 -9 721 -143 1002 -365 36 -28 69 -51 73 -51 3 0 28 -21 55 -46
27 -26 60 -54 72 -62 13 -9 26 -21 30 -26 4 -6 32 -36 63 -67 35 -37 55 -65
55 -80 0 -18 -106 -129 -444 -464 -553 -549 -905 -891 -938 -913 -14 -9 -65
-58 -114 -107 -49 -50 -107 -104 -129 -120 -21 -17 -51 -42 -65 -56 -72 -74
-182 -139 -301 -178 -188 -62 -294 -61 -484 1 -94 31 -119 41 -221 89 -34 16
-67 29 -73 29 -6 0 -11 5 -11 11 0 6 -6 9 -12 6 -7 -2 -40 11 -73 29 -33 18
-80 44 -105 56 -25 13 -48 28 -52 33 -4 6 -8 7 -8 3 0 -4 -30 9 -67 27 -38 19
-74 35 -80 35 -7 0 -13 5 -13 10 0 6 -7 10 -15 10 -21 0 -23 12 -41 225 -3 39
-11 76 -16 82 -25 31 -9 340 26 503 3 14 8 39 11 55 13 67 49 181 62 196 7 8
13 23 13 33 0 9 11 39 25 66 14 28 26 53 27 57 0 5 10 24 22 43 12 19 28 47
35 63 8 15 18 27 23 27 4 0 8 6 8 14 0 8 4 16 9 18 4 2 26 30 46 63 61 95 153
205 223 265 35 30 69 60 75 65 51 45 162 128 195 145 23 12 46 28 52 35 7 8
37 24 68 35 30 12 85 36 121 55 75 38 151 65 266 96 126 33 138 35 265 44 47
3 99 9 115 13 16 5 48 7 70 5 22 -2 92 -5 155 -7z m1541 -1023 c29 -64 60
-148 70 -185 10 -38 21 -73 24 -77 3 -5 12 -47 21 -93 9 -45 20 -89 26 -96 8
-10 15 -268 9 -325 -1 -4 -12 4 -24 19 -17 19 -33 27 -56 27 -42 0 -48 -8 -69
-84 -14 -51 -21 -64 -37 -64 -17 0 -20 6 -17 42 1 23 -2 53 -8 68 -13 33 -65
56 -98 44 -20 -8 -28 -6 -39 11 -16 22 -43 27 -43 7 0 -7 9 -18 20 -25 18 -11
19 -15 7 -40 -20 -39 -12 -83 18 -109 30 -26 59 -29 97 -9 25 13 28 13 34 -6
5 -17 12 -19 40 -15 25 4 34 2 34 -8 0 -16 38 -45 58 -45 8 0 27 14 43 31 28
30 29 31 29 8 0 -13 -11 -71 -24 -129 -22 -96 -35 -134 -93 -285 -25 -65 -82
-183 -104 -215 -9 -14 -36 -55 -59 -92 -24 -38 -47 -68 -51 -68 -4 0 -10 -8
-14 -19 -9 -31 -240 -257 -292 -287 -26 -15 -61 -38 -76 -51 -38 -31 -51 -29
-33 5 8 16 12 40 9 53 -6 28 -94 323 -97 326 -1 1 -8 -2 -15 -6 -11 -7 -7 -28
18 -111 18 -56 30 -104 27 -107 -5 -5 -99 47 -172 94 -18 11 -23 11 -33 -1
-10 -11 8 -25 96 -77 59 -35 113 -66 118 -68 36 -14 34 -82 -2 -111 -26 -20
-27 -22 -10 -35 17 -12 17 -15 -10 -39 -15 -15 -62 -44 -103 -65 -41 -21 -84
-43 -95 -48 -118 -62 -386 -137 -570 -160 -90 -12 -358 -8 -460 7 -49 7 -103
14 -119 16 -43 6 -101 23 -150 44 -24 10 -57 21 -73 24 -49 9 -97 23 -136 40
-101 44 -171 78 -210 103 -45 30 -75 47 -122 71 -34 18 -175 156 -175 171 0 5
10 7 22 5 13 -3 37 -7 54 -8 17 -2 36 -6 41 -9 6 -4 49 -9 97 -11 47 -3 91 -8
97 -12 20 -12 252 -11 279 1 14 6 37 11 52 10 16 0 28 2 28 5 0 3 22 16 50 29
51 25 164 128 213 194 25 33 1815 1827 1823 1827 2 0 15 11 30 25 19 18 30 22
39 15 7 -6 37 -63 66 -127z m-95 -778 c34 -52 -14 -109 -71 -83 -25 11 -30 24
-26 62 4 51 68 64 97 21z m194 0 c31 -37 2 -145 -39 -145 -36 0 -45 25 -31 88
7 31 14 60 17 65 7 12 40 8 53 -8z"/>
<path d="M2377 4193 c-2 -5 -2 -48 -1 -98 1 -49 3 -132 3 -182 1 -86 2 -93 21
-93 19 0 20 7 20 93 l0 92 91 -92 c52 -54 99 -93 110 -93 10 0 19 3 19 8 -1 4
-39 47 -85 96 -66 70 -82 93 -75 105 6 9 41 50 80 91 63 67 68 75 49 78 -18 3
-42 -16 -105 -85 l-83 -88 -2 50 c0 28 0 67 1 88 1 31 -2 37 -19 37 -11 0 -22
-3 -24 -7z"/>
<path d="M2038 4154 c-3 -3 1 -26 9 -52 7 -26 28 -99 44 -162 38 -141 49 -160
93 -160 37 0 47 6 39 26 -3 9 -13 12 -28 8 -28 -7 -32 4 -81 191 -20 77 -38
143 -41 148 -5 8 -27 9 -35 1z"/>
<path d="M2705 4008 c-9 -46 -23 -109 -30 -140 -13 -55 -12 -58 6 -58 22 0 22
-1 44 104 12 54 24 86 41 102 44 45 124 21 124 -36 0 -16 -7 -59 -15 -97 -9
-37 -18 -78 -20 -90 -4 -18 -1 -23 14 -23 22 0 24 5 46 108 30 143 16 180 -68
189 -32 4 -52 0 -71 -12 l-27 -18 7 26 c5 22 3 27 -13 27 -17 0 -23 -13 -38
-82z"/>
<path d="M1875 3978 c-37 -13 -63 -35 -81 -70 -12 -23 -11 -27 2 -32 22 -8 24
-8 24 8 0 21 58 66 85 66 28 0 49 -23 40 -47 -3 -10 -28 -35 -55 -56 -27 -20
-52 -47 -55 -60 -8 -32 9 -73 41 -93 24 -16 30 -16 68 -3 29 10 46 24 57 46
11 22 19 29 26 22 16 -16 68 -7 68 11 0 8 -9 15 -20 15 -20 0 -34 21 -83 131
-14 31 -32 55 -48 62 -29 14 -29 14 -69 0z m110 -135 c15 -58 14 -75 -10 -99
-33 -33 -77 -32 -95 1 -17 32 -3 59 48 97 47 34 48 34 57 1z"/>
<path d="M3076 3969 c-81 -22 -137 -156 -92 -224 36 -55 127 -84 169 -52 26
19 6 43 -23 27 -27 -14 -58 -7 -93 21 -22 16 -27 29 -27 63 0 23 3 45 6 48 3
3 37 -10 77 -29 39 -19 83 -36 97 -36 22 -2 26 4 36 43 12 48 -1 92 -35 117
-26 19 -84 30 -115 22z m100 -53 c16 -16 24 -79 12 -91 -8 -8 -141 50 -145 62
-2 5 6 19 18 32 18 19 29 22 60 18 21 -3 46 -12 55 -21z"/>
<path d="M1586 3806 c-25 -23 -36 -42 -36 -61 0 -28 0 -28 -20 -10 -14 13 -24
15 -31 8 -8 -8 14 -44 71 -122 45 -61 86 -111 90 -111 21 0 20 24 -4 58 -13
20 -39 57 -55 81 -17 24 -31 56 -31 71 0 34 44 80 76 80 28 0 40 -12 110 -107
45 -61 58 -72 69 -63 17 14 18 13 -57 112 -84 111 -119 124 -182 64z"/>
<path d="M3315 3810 c-47 -19 -105 -104 -105 -152 0 -72 100 -146 164 -122 31
12 18 35 -19 32 -68 -4 -120 61 -95 121 7 17 15 31 19 31 3 0 39 -25 79 -55
40 -30 77 -55 83 -55 17 0 49 64 49 100 -1 77 -97 133 -175 100z m117 -48 c20
-20 25 -49 14 -79 -10 -31 -20 -29 -76 12 -72 53 -76 61 -43 79 33 19 80 13
105 -12z"/>
<path d="M1363 3600 c-48 -22 -86 -84 -78 -130 8 -43 32 -78 79 -111 64 -47
134 -37 181 26 37 48 37 102 1 150 -54 70 -120 94 -183 65z m80 -34 c43 -18
85 -65 93 -103 5 -25 1 -36 -23 -61 -28 -31 -38 -35 -82 -33 -31 1 -111 81
-111 111 0 42 45 96 83 99 4 1 22 -5 40 -13z"/>
<path d="M1081 3427 c-13 -16 -5 -47 13 -47 26 1 41 19 30 37 -14 23 -29 26
-43 10z"/>
<path d="M1176 3365 c-3 -9 -6 -18 -6 -20 0 -9 233 -144 241 -140 22 14 3 34
-89 89 -53 33 -107 66 -118 73 -19 12 -22 11 -28 -2z"/>
<path d="M1098 3229 l-17 -40 -30 15 c-27 14 -30 14 -36 -1 -6 -17 17 -43 38
-43 5 0 6 -13 2 -30 -5 -23 -3 -30 9 -30 9 0 16 3 16 8 0 4 4 13 8 20 7 10 29
3 96 -28 88 -40 110 -45 141 -34 32 13 62 104 33 104 -7 0 -20 -15 -28 -33 -8
-17 -23 -33 -32 -35 -10 -2 -56 15 -103 37 l-86 40 16 30 c18 36 19 61 3 61
-7 0 -21 -18 -30 -41z"/>
<path d="M1025 2998 c-36 -31 -50 -97 -31 -143 11 -25 19 -33 30 -29 18 7 21
20 6 29 -15 10 -12 78 6 103 34 49 73 10 68 -70 -4 -77 24 -117 81 -118 35 0
45 6 68 40 19 27 23 85 7 95 -17 11 -11 30 13 40 12 6 23 20 25 33 4 25 -15
30 -32 6 -10 -14 -19 -13 -86 5 -128 33 -126 33 -155 9z m165 -53 c33 -17 50
-43 50 -77 -1 -33 -23 -58 -52 -58 -38 0 -52 24 -53 91 0 65 5 70 55 44z"/>
<path d="M852 2696 c3 -20 10 -21 138 -24 74 -2 139 -4 144 -6 6 -1 -55 -43
-135 -92 -119 -74 -145 -94 -147 -116 -3 -23 0 -26 37 -29 21 -2 106 -4 187
-4 132 0 147 2 150 18 2 12 -5 17 -24 18 -15 1 -72 2 -127 4 -155 4 -156 5
-151 13 2 4 72 48 155 97 123 73 151 94 151 113 0 22 -1 22 -147 23 -82 0
-167 2 -191 3 -38 2 -43 0 -40 -18z"/>
<path d="M1413 2419 c-87 -43 -127 -117 -121 -224 5 -93 42 -151 123 -191 48
-23 64 -26 118 -22 70 6 108 22 151 65 111 110 73 319 -69 379 -52 21 -152 18
-202 -7z"/>
<path d="M4150 3080 c0 -5 11 -20 25 -34 41 -41 33 -106 -16 -132 -34 -17 -32
-21 -54 85 -9 41 -17 76 -19 78 -1 2 -17 0 -34 -3 -130 -26 -95 -215 40 -214
44 1 114 33 128 61 25 46 10 126 -29 156 -19 15 -41 17 -41 3z m-72 -91 c18
-76 16 -89 -13 -89 -34 0 -65 33 -65 70 0 31 30 70 53 70 8 0 18 -21 25 -51z"/>
<path d="M4000 2765 c0 -17 27 -24 90 -23 84 1 100 -2 120 -22 27 -27 27 -85
1 -100 -11 -5 -63 -10 -116 -10 -86 0 -96 -2 -93 -17 3 -15 15 -18 88 -18 139
-1 170 15 170 87 0 25 -7 45 -21 59 l-20 20 20 6 c12 3 21 12 21 19 0 11 -26
14 -130 14 -108 0 -130 -2 -130 -15z"/>
<path d="M3957 2229 c-49 -28 -66 -159 -21 -159 11 0 13 9 8 38 -3 20 -1 50 5
65 9 23 16 28 39 25 27 -3 27 -4 27 -74 0 -85 18 -114 71 -114 53 0 83 47 70
111 -4 23 -2 31 12 36 32 12 45 53 17 53 -8 0 -15 -4 -15 -10 0 -15 -34 -12
-92 9 -75 27 -101 31 -121 20z m144 -66 c36 -22 47 -58 28 -92 -18 -33 -50
-38 -73 -12 -15 16 -17 29 -11 70 8 56 13 59 56 34z"/>
<path d="M3837 1970 c-33 -38 -40 -64 -33 -104 10 -55 84 -106 152 -106 66 0
125 87 102 150 -13 35 -33 18 -30 -26 5 -63 -47 -105 -102 -84 l-27 10 41 73
c22 41 40 78 40 84 0 15 -46 33 -85 33 -25 0 -40 -8 -58 -30z m92 -9 c13 -8
10 -18 -13 -63 -40 -74 -44 -77 -67 -49 -26 32 -24 67 6 96 25 26 50 31 74 16z"/>
<path d="M3564 1719 c-3 -6 -2 -14 2 -18 19 -17 240 -188 250 -194 13 -8 137
146 127 157 -13 12 -23 5 -69 -54 -26 -33 -50 -60 -53 -60 -3 0 -57 41 -118
90 -62 50 -117 90 -122 90 -6 0 -13 -5 -17 -11z"/>
<path d="M3205 1328 c-79 -45 -83 -136 -11 -213 26 -28 41 -35 70 -35 66 0
126 46 126 97 0 30 -22 21 -38 -16 -25 -56 -106 -65 -138 -15 -13 19 -10 23
65 64 l80 44 -15 27 c-27 54 -90 75 -139 47z m91 -39 c18 -20 18 -21 -1 -36
-11 -8 -41 -26 -67 -39 l-48 -24 -2 22 c-3 44 2 60 25 79 29 25 70 24 93 -2z"/>
<path d="M2870 1292 c0 -9 111 -325 116 -331 2 -2 10 -1 19 2 13 6 12 13 -5
58 -12 28 -19 54 -16 56 3 3 20 -4 38 -14 94 -56 104 -60 122 -54 16 6 8 14
-45 46 -35 21 -69 42 -75 47 -9 6 -4 27 17 76 16 40 24 68 18 71 -16 5 -26 -9
-52 -72 -13 -32 -27 -59 -32 -60 -5 -1 -22 40 -39 90 -23 70 -35 93 -48 93
-10 0 -18 -4 -18 -8z"/>
<path d="M2055 1258 c-3 -7 -18 -80 -34 -163 -21 -109 -26 -152 -17 -157 19
-13 24 -9 31 30 3 20 11 58 16 83 l10 46 67 -13 c123 -25 111 -15 96 -86 -18
-83 -17 -108 1 -108 17 0 15 -4 54 187 24 120 26 143 14 147 -8 4 -16 6 -18 6
-2 0 -9 -26 -15 -57 -6 -32 -13 -63 -15 -69 -2 -8 -27 -7 -87 5 -93 19 -89 13
-74 114 7 40 5 47 -8 47 -9 0 -19 -6 -21 -12z"/>
<path d="M2723 1156 c-44 -20 -66 -67 -61 -126 9 -90 74 -141 153 -119 34 10
78 54 72 73 -7 20 -24 16 -37 -9 -13 -24 -26 -31 -69 -40 -45 -8 -95 70 -84
131 11 60 62 86 116 59 37 -18 61 -5 35 21 -22 22 -87 27 -125 10z"/>
<path d="M2412 1120 c-38 -24 -52 -54 -52 -118 0 -104 89 -160 179 -113 68 37
67 195 0 232 -38 20 -93 20 -127 -1z m115 -34 c24 -21 27 -31 27 -80 -1 -64
-19 -91 -68 -100 -51 -9 -83 21 -91 86 -5 42 19 96 47 108 37 14 55 11 85 -14z"/>
</g>
</svg>
